<svg xmlns="http://www.w3.org/2000/svg" width="504" height="504" viewBox="0 0 504 504" fill="none">
  <defs>
    <linearGradient id="bg" x1="30" y1="24" x2="474" y2="492" gradientUnits="userSpaceOnUse">
      <stop stop-color="#214A38"/>
      <stop offset="1" stop-color="#2A2B2C"/>
    </linearGradient>
    <linearGradient id="panel" x1="0" y1="0" x2="504" y2="504" gradientUnits="userSpaceOnUse">
      <stop stop-color="rgba(255,255,255,0.20)"/>
      <stop offset="1" stop-color="rgba(255,255,255,0.06)"/>
    </linearGradient>
  </defs>
  <rect width="504" height="504" rx="32" fill="url(#bg)"/>
  <rect x="1" y="1" width="502" height="502" rx="31" stroke="rgba(255,255,255,0.22)" stroke-width="2"/>
  <circle cx="455" cy="48" r="26" fill="rgba(255,255,255,0.08)"/>
  <text x="455" y="57" text-anchor="middle" font-family="Avenir Next, Helvetica, Arial, sans-serif" font-size="26" font-weight="700" fill="#E7ECEF">?</text>
  <g>
    <rect x="46" y="50" width="108" height="102" rx="24" fill="#C8C8CC"/>
    <path d="M86 95a16 16 0 1 0 0-32 16 16 0 0 0 0 32Zm28 39a12 12 0 1 0 0-24 12 12 0 0 0 0 24Zm-37-24 7-12 10 3 6-8-3-10 12-7 8 7 10-3 3-10h14l3 10 10 3 8-7 12 7-3 10 6 8 10-3 7 12-7 8 2 10 10 4v14l-10 4-2 10 7 8-7 12-10-3-6 8 3 10-12 7-8-7-10 3-3 10h-14l-3-10-10-3-8 7-12-7 3-10-6-8-10 3-7-12 7-8-2-10-10-4v-14l10-4 2-10-7-8Z" fill="#fff" fill-opacity=".96"/>
    <rect x="109" y="111" width="42" height="48" rx="10" fill="#4A95F9"/>
    <path d="M124 142c-6 0-10-5-10-11s4-11 10-11 10 5 10 11-4 11-10 11Zm-10 6h20c3 0 5 2 5 5v10h-30v-10c0-3 2-5 5-5Z" fill="#fff"/>
  </g>
  <text x="38" y="238" font-family="Avenir Next, Helvetica, Arial, sans-serif" font-size="28" font-weight="700" fill="#F3F5F6">
    <tspan x="38" dy="0">“Telethon Proxy” wants access</tspan>
    <tspan x="38" dy="34">to control “Messages”. Allowing</tspan>
    <tspan x="38" dy="34">control will provide access to</tspan>
    <tspan x="38" dy="34">documents and data in</tspan>
    <tspan x="38" dy="34">“Messages”, and to perform</tspan>
    <tspan x="38" dy="34">actions within that app.</tspan>
  </text>
  <rect x="24" y="424" width="220" height="52" rx="26" fill="rgba(255,255,255,0.10)"/>
  <text x="134" y="458" text-anchor="middle" font-family="Avenir Next, Helvetica, Arial, sans-serif" font-size="26" font-weight="700" fill="#E3E7EA">Don’t Allow</text>
  <rect x="260" y="424" width="220" height="52" rx="26" fill="#3C7CFF"/>
  <text x="370" y="458" text-anchor="middle" font-family="Avenir Next, Helvetica, Arial, sans-serif" font-size="26" font-weight="700" fill="#fff">Allow</text>
</svg>
